{"accessors" : [{"bufferView" : 0, "byteOffset" : 0, "componentType" : 5123, "count" : 9000, "type" : "SCALAR", "max" : [1889], "min" : [0]}, {"bufferView" : 1, "byteOffset" : 0, "componentType" : 5126, "count" : 1890, "type" : "VEC3", "max" : [-2.8190999031066895, 33.83430099487305, 2.4899001121520996], "min" : [-11.375300407409668, 0, -6.066299915313721]}, {"bufferView" : 1, "byteOffset" : 12, "componentType" : 5126, "count" : 1890, "type" : "VEC2", "max" : [0.6815000176429749, -0.006399999838322401], "min" : [0.31850001215934753, -0.804099977016449]}, {"bufferView" : 1, "byteOffset" : 20, "componentType" : 5126, "count" : 1890, "type" : "VEC3", "max" : [1.0000044107437134, 1.0000044107437134, 1.0000044107437134], "min" : [-1.0000044107437134, -1.0000044107437134, -1.0000044107437134]}, {"bufferView" : 0, "byteOffset" : 18000, "componentType" : 5123, "count" : 9000, "type" : "SCALAR", "max" : [1883], "min" : [0]}, {"bufferView" : 2, "byteOffset" : 0, "componentType" : 5126, "count" : 1884, "type" : "VEC3", "max" : [7.559299945831299, 41.92559814453125, 2.4899001121520996], "min" : [-0.9969000220298767, 0, -6.066299915313721]}, {"bufferView" : 2, "byteOffset" : 12, "componentType" : 5126, "count" : 1884, "type" : "VEC2", "max" : [0.6815000176429749, -0.006399999838322401], "min" : [0.31850001215934753, -0.9952999949455261]}, {"bufferView" : 2, "byteOffset" : 20, "componentType" : 5126, "count" : 1884, "type" : "VEC3", "max" : [1.0000044107437134, 1.0000044107437134, 1.0000044107437134], "min" : [-1.0000044107437134, -1.0000044107437134, -1.0000044107437134]}], "asset" : {"generator" : "Aspose.3D 21.1", "version" : "2.0"}, "buffers" : [{"uri" : "buffer.bin", "byteLength" : 612012}], "bufferViews" : [{"buffer" : 0, "byteOffset" : 0, "byteLength" : 36000, "target" : 34963}, {"buffer" : 0, "byteOffset" : 36004, "byteLength" : 288000, "byteStride" : 32, "target" : 34962}, {"buffer" : 0, "byteOffset" : 324008, "byteLength" : 288000, "byteStride" : 32, "target" : 34962}], "meshes" : [{"primitives" : [{"attributes" : {"POSITION" : 1, "TEXCOORD_0" : 2, "NORMAL" : 3}, "indices" : 0, "mode" : 4}]}, {"primitives" : [{"attributes" : {"POSITION" : 5, "TEXCOORD_0" : 6, "NORMAL" : 7}, "indices" : 4, "mode" : 4}]}], "nodes" : [{"mesh" : 0, "name" : "Decoration_14_01"}, {"mesh" : 1, "name" : "Decoration_14_00"}], "scene" : 0, "scenes" : [{"nodes" : [0, 1]}]}